<?xml version="1.0" encoding="UTF-8" standalone="no"?>
<!-- Created with Inkscape (http://www.inkscape.org/) -->

<svg
   width="293.60318"
   height="277.91599"
   viewBox="0 0 77.682506 73.531937"
   version="1.1"
   id="svg1"
   inkscape:version="1.4.2 (f4327f4, 2025-05-13)"
   sodipodi:docname="block_icon_4.svg"
   xmlns:inkscape="http://www.inkscape.org/namespaces/inkscape"
   xmlns:sodipodi="http://sodipodi.sourceforge.net/DTD/sodipodi-0.dtd"
   xmlns="http://www.w3.org/2000/svg"
   xmlns:svg="http://www.w3.org/2000/svg">
  <sodipodi:namedview
     id="namedview1"
     pagecolor="#ffffff"
     bordercolor="#000000"
     borderopacity="0.25"
     inkscape:showpageshadow="2"
     inkscape:pageopacity="0.0"
     inkscape:pagecheckerboard="0"
     inkscape:deskcolor="#d1d1d1"
     inkscape:document-units="px"
     inkscape:zoom="0.69753788"
     inkscape:cx="397.11105"
     inkscape:cy="561.25984"
     inkscape:window-width="1920"
     inkscape:window-height="1001"
     inkscape:window-x="-9"
     inkscape:window-y="-9"
     inkscape:window-maximized="1"
     inkscape:current-layer="layer1" />
  <defs
     id="defs1" />
  <g
     inkscape:label="Layer 1"
     inkscape:groupmode="layer"
     id="layer1">
    <g
       id="g79"
       transform="matrix(0.4839267,0,0,0.4839267,-160.10263,-431.63173)">
      <path
         style="fill:#000000;fill-opacity:1;stroke:none;stroke-width:3.96875;stroke-linecap:square;stroke-dasharray:none;stroke-opacity:1"
         id="path64"
         sodipodi:type="arc"
         sodipodi:cx="417.07108"
         sodipodi:cy="936.86774"
         sodipodi:rx="12.606008"
         sodipodi:ry="12.606008"
         sodipodi:start="0"
         sodipodi:end="5.9930642"
         sodipodi:open="true"
         sodipodi:arc-type="arc"
         d="m 429.67708,936.86774 a 12.606008,12.606008 0 0 1 -11.69249,12.57286 12.606008,12.606008 0 0 1 -13.38712,-10.75064 12.606008,12.606008 0 0 1 9.75225,-14.13099 12.606008,12.606008 0 0 1 14.80055,8.70259" />
      <path
         style="fill:#000000;fill-opacity:1;stroke:none;stroke-width:5.61536;stroke-linecap:square;stroke-dasharray:none;stroke-opacity:1"
         id="path65"
         sodipodi:type="arc"
         sodipodi:cx="352.83411"
         sodipodi:cy="981.52521"
         sodipodi:rx="17.836159"
         sodipodi:ry="17.836159"
         sodipodi:start="0"
         sodipodi:end="5.9930642"
         sodipodi:open="true"
         sodipodi:arc-type="arc"
         d="m 370.67027,981.52521 a 17.836159,17.836159 0 0 1 -16.54364,17.78926 17.836159,17.836159 0 0 1 -18.94135,-15.211 17.836159,17.836159 0 0 1 13.79839,-19.99385 17.836159,17.836159 0 0 1 20.94121,12.31323" />
      <path
         style="fill:#000000;fill-opacity:1;stroke:none;stroke-width:4.51762;stroke-linecap:square;stroke-dasharray:none;stroke-opacity:1"
         id="path66"
         sodipodi:type="arc"
         sodipodi:cx="431.15228"
         sodipodi:cy="981.52521"
         sodipodi:rx="14.349391"
         sodipodi:ry="14.349391"
         sodipodi:start="0"
         sodipodi:end="5.9930642"
         sodipodi:open="true"
         sodipodi:arc-type="arc"
         d="m 445.50167,981.52521 a 14.349391,14.349391 0 0 1 -13.30953,14.31166 14.349391,14.349391 0 0 1 -15.23854,-12.23742 14.349391,14.349391 0 0 1 11.10097,-16.08528 14.349391,14.349391 0 0 1 16.84743,9.90613" />
      <path
         style="fill:#000000;fill-opacity:1;stroke:none;stroke-width:6.92421;stroke-linecap:square;stroke-dasharray:none;stroke-opacity:1"
         id="path67"
         sodipodi:type="arc"
         sodipodi:cx="352.83411"
         sodipodi:cy="913.92963"
         sodipodi:rx="21.993452"
         sodipodi:ry="21.993452"
         sodipodi:start="0"
         sodipodi:end="5.9930642"
         sodipodi:open="true"
         sodipodi:arc-type="arc"
         d="m 374.82756,913.92963 a 21.993452,21.993452 0 0 1 -20.39966,21.93562 21.993452,21.993452 0 0 1 -23.35625,-18.75642 21.993452,21.993452 0 0 1 17.01456,-24.65406 21.993452,21.993452 0 0 1 25.82223,15.18323" />
      <path
         style="fill:#000000;fill-opacity:1;stroke:none;stroke-width:6.60848;stroke-linecap:square;stroke-dasharray:none;stroke-opacity:1"
         id="path68"
         sodipodi:type="arc"
         sodipodi:cx="466.22406"
         sodipodi:cy="913.92963"
         sodipodi:rx="20.990597"
         sodipodi:ry="20.990597"
         sodipodi:start="0"
         sodipodi:end="5.9930642"
         sodipodi:open="true"
         sodipodi:arc-type="arc"
         d="m 487.21466,913.92963 a 20.990597,20.990597 0 0 1 -19.46948,20.93541 20.990597,20.990597 0 0 1 -22.29126,-17.90117 20.990597,20.990597 0 0 1 16.23873,-23.52989 20.990597,20.990597 0 0 1 24.64479,14.4909" />
      <path
         style="fill:#000000;fill-opacity:1;stroke:none;stroke-width:4.51762;stroke-linecap:square;stroke-dasharray:none;stroke-opacity:1"
         id="path69"
         sodipodi:type="arc"
         sodipodi:cx="474.871"
         sodipodi:cy="1029.5353"
         sodipodi:rx="14.349391"
         sodipodi:ry="14.349391"
         sodipodi:start="0"
         sodipodi:end="5.9930642"
         sodipodi:open="true"
         sodipodi:arc-type="arc"
         d="m 489.22039,1029.5353 a 14.349391,14.349391 0 0 1 -13.30953,14.3116 14.349391,14.349391 0 0 1 -15.23854,-12.2374 14.349391,14.349391 0 0 1 11.10097,-16.0853 14.349391,14.349391 0 0 1 16.84743,9.9062" />
      <path
         style="fill:#000000;fill-opacity:1;stroke:none;stroke-width:3.67321;stroke-linecap:square;stroke-dasharray:none;stroke-opacity:1"
         id="path70"
         sodipodi:type="arc"
         sodipodi:cx="389.57922"
         sodipodi:cy="1026.8531"
         sodipodi:rx="11.667262"
         sodipodi:ry="11.667262"
         sodipodi:start="0"
         sodipodi:end="5.9930642"
         sodipodi:open="true"
         sodipodi:arc-type="arc"
         d="m 401.24649,1026.8531 a 11.667262,11.667262 0 0 1 -10.82178,11.6366 11.667262,11.667262 0 0 1 -12.39021,-9.95 11.667262,11.667262 0 0 1 9.02602,-13.0787 11.667262,11.667262 0 0 1 13.69838,8.0545" />
      <path
         style="fill:#000000;fill-opacity:1;stroke:none;stroke-width:3.67321;stroke-linecap:square;stroke-dasharray:none;stroke-opacity:1"
         id="path71"
         sodipodi:type="arc"
         sodipodi:cx="479.69876"
         sodipodi:cy="963.68903"
         sodipodi:rx="11.667262"
         sodipodi:ry="11.667262"
         sodipodi:start="0"
         sodipodi:end="5.9930642"
         sodipodi:open="true"
         sodipodi:arc-type="arc"
         d="m 491.36602,963.68903 a 11.667262,11.667262 0 0 1 -10.82177,11.63658 11.667262,11.667262 0 0 1 -12.39021,-9.95005 11.667262,11.667262 0 0 1 9.02602,-13.07869 11.667262,11.667262 0 0 1 13.69838,8.05452" />
      <path
         style="fill:none;fill-opacity:1;stroke:#000000;stroke-width:3.96875;stroke-linecap:square;stroke-dasharray:none;stroke-opacity:1"
         d="m 351.44461,913.92961 65.62645,22.93813"
         id="path72" />
      <path
         style="fill:none;fill-opacity:1;stroke:#000000;stroke-width:3.96875;stroke-linecap:square;stroke-dasharray:none;stroke-opacity:1"
         d="m 468.03151,913.92961 -50.96045,22.93813"
         id="path73" />
      <path
         style="fill:none;fill-opacity:1;stroke:#000000;stroke-width:3.96875;stroke-linecap:square;stroke-dasharray:none;stroke-opacity:1"
         d="m 352.83409,981.5252 76.30658,2.27978"
         id="path74" />
      <path
         style="fill:none;fill-opacity:1;stroke:#000000;stroke-width:3.96875;stroke-linecap:square;stroke-dasharray:none;stroke-opacity:1"
         d="m 479.69876,963.68903 -50.55809,20.11595"
         id="path75"
         sodipodi:nodetypes="cc" />
      <path
         style="fill:none;fill-opacity:1;stroke:#000000;stroke-width:3.96875;stroke-linecap:square;stroke-dasharray:none;stroke-opacity:1"
         d="m 389.57922,1015.1859 27.49184,-78.31816"
         id="path76" />
      <path
         style="fill:none;fill-opacity:1;stroke:#000000;stroke-width:3.96875;stroke-linecap:square;stroke-dasharray:none;stroke-opacity:1"
         d="m 474.87101,1015.1859 4.82775,-51.49687"
         id="path77"
         sodipodi:nodetypes="cc" />
      <path
         style="fill:none;fill-opacity:1;stroke:#000000;stroke-width:3.96875;stroke-linecap:square;stroke-dasharray:none;stroke-opacity:1"
         d="m 429.14067,983.80498 38.89084,-69.87537"
         id="path78" />
      <path
         style="fill:none;fill-opacity:1;stroke:#000000;stroke-width:3.96875;stroke-linecap:square;stroke-dasharray:none;stroke-opacity:1"
         d="m 351.44461,913.92961 77.69606,69.87537"
         id="path79"
         sodipodi:nodetypes="cc" />
    </g>
  </g>
</svg>
