<?xml version="1.0" encoding="UTF-8" standalone="no"?>
<!-- Created with Inkscape (http://www.inkscape.org/) -->

<svg
   width="272.10159"
   height="258.37454"
   viewBox="0 0 71.993545 68.361597"
   version="1.1"
   id="svg1"
   inkscape:version="1.4.2 (f4327f4, 2025-05-13)"
   sodipodi:docname="block_icon_2.svg"
   xmlns:inkscape="http://www.inkscape.org/namespaces/inkscape"
   xmlns:sodipodi="http://sodipodi.sourceforge.net/DTD/sodipodi-0.dtd"
   xmlns="http://www.w3.org/2000/svg"
   xmlns:svg="http://www.w3.org/2000/svg">
  <sodipodi:namedview
     id="namedview1"
     pagecolor="#ffffff"
     bordercolor="#000000"
     borderopacity="0.25"
     inkscape:showpageshadow="2"
     inkscape:pageopacity="0.0"
     inkscape:pagecheckerboard="0"
     inkscape:deskcolor="#d1d1d1"
     inkscape:document-units="px"
     inkscape:zoom="0.69753788"
     inkscape:cx="263.78496"
     inkscape:cy="425.06652"
     inkscape:window-width="1920"
     inkscape:window-height="1001"
     inkscape:window-x="-9"
     inkscape:window-y="-9"
     inkscape:window-maximized="1"
     inkscape:current-layer="layer1" />
  <defs
     id="defs1" />
  <g
     inkscape:label="Layer 1"
     inkscape:groupmode="layer"
     id="layer1">
    <g
       id="g30"
       transform="matrix(0.80000004,0,0,0.80000004,-280.66098,-518.29079)">
      <g
         id="g29"
         transform="matrix(0.741033,0,0,0.741033,106.53647,162.23041)">
        <circle
           style="fill:none;stroke:#000000;stroke-width:5.29167;stroke-linecap:square;stroke-dasharray:none;stroke-opacity:1"
           id="path28"
           cx="395.86615"
           cy="710.58215"
           r="52.590279" />
        <circle
           style="fill:none;stroke:#000000;stroke-width:5.29167;stroke-linecap:square;stroke-dasharray:none;stroke-opacity:1"
           id="circle29"
           cx="384.89719"
           cy="715.42462"
           r="52.590279" />
      </g>
      <path
         d="m 394.28926,708.98818 v -5.334 q -1.1684,-0.1016 -2.8956,-0.508 -1.7272,-0.4064 -3.302,-0.9652 -1.524,-0.6096 -2.3368,-1.27 0,-1.1684 0.1524,-2.4384 0.1524,-1.27 0.3556,-2.4384 0.254,-1.1684 0.4572,-1.9304 0.3556,-0.1016 0.9652,-0.254 0.6604,-0.1524 1.3716,-0.1524 l 1.0668,5.4356 q 0.7112,0.3556 1.8796,0.7112 1.1684,0.3556 2.286,0.5588 v -10.3632 q -1.3208,-0.4064 -2.7432,-0.8636 -1.4224,-0.4572 -2.6924,-0.9652 -1.2192,-0.5588 -2.0828,-1.0668 -0.8128,-0.508 -0.9652,-0.9652 -0.0508,-0.508 -0.1524,-1.016 -0.0508,-0.5588 -0.0508,-1.1684 0,-1.6764 0.3048,-3.5052 0.3556,-1.8796 0.8636,-2.8956 0.6096,-0.6096 1.8288,-1.2192 1.27,-0.6096 2.794,-1.1684 1.524,-0.5588 2.8956,-0.8636 v -4.572 q 0.4572,-0.4064 1.4732,-0.762 1.016,-0.4064 2.3368,-0.4064 -0.0508,0.5588 -0.2032,1.9812 -0.1524,1.4224 -0.254,3.4544 1.3208,0.1016 2.7432,0.508 1.4224,0.4064 2.6924,0.9652 1.3208,0.5588 2.0828,1.1176 0,0.9652 -0.2032,2.2352 -0.2032,1.2192 -0.508,2.3876 -0.254,1.1684 -0.4572,1.8288 -0.8636,0 -1.4732,-0.1524 -0.5588,-0.2032 -0.8128,-0.4064 l -1.1684,-4.6228 q -0.6604,-0.254 -1.4732,-0.4064 -0.8128,-0.2032 -1.524,-0.254 v 9.906 q 2.032,0.6096 3.9116,1.27 1.9304,0.6604 3.2512,1.3208 1.3208,0.6604 1.524,1.3208 0.1016,0.6604 0.1524,1.3716 0.0508,0.7112 0.0508,1.4732 0,1.6764 -0.254,3.3528 -0.2032,1.6764 -0.6604,2.9972 -0.4572,0.4572 -1.6256,1.1684 -1.1684,0.7112 -2.8448,1.3208 -1.6256,0.5588 -3.5052,0.8128 v 4.9276 q -0.3556,0.1524 -1.2192,0.3048 -0.8636,0.2032 -2.032,0.2032 z m 3.2512,-8.4836 q 1.016,-0.1016 2.032,-0.3048 1.0668,-0.2032 1.6256,-0.4572 0.4064,-0.6604 0.5588,-1.778 0.2032,-1.1176 0.2032,-2.2352 0,-0.9652 -0.1016,-1.8288 -0.1016,-0.9144 -0.3048,-1.524 -0.1524,-0.1524 -0.9144,-0.4064 -0.762,-0.3048 -1.6764,-0.6096 -0.8636,-0.3048 -1.4224,-0.4064 z m -3.2512,-14.2748 v -9.0932 q -0.8128,0.0508 -1.778,0.1524 -0.9144,0.1016 -1.6764,0.3048 -0.4572,0.8128 -0.6604,1.9812 -0.2032,1.1176 -0.2032,2.4384 0,0.7112 0.0508,1.4224 0.0508,0.7112 0.1524,1.27 0.3048,0.254 1.4224,0.6604 1.1176,0.4064 2.6924,0.8636 z"
         id="text29"
         style="font-weight:500;font-size:50.8px;font-family:Texturina;-inkscape-font-specification:'Texturina Medium';text-align:center;text-anchor:middle;stroke-width:5.29167;stroke-linecap:square"
         aria-label="$" />
    </g>
  </g>
</svg>
